<svg width="256" height="256" viewBox="0 0 256 256" fill="none" xmlns="http://www.w3.org/2000/svg">
<path fill-rule="evenodd" clip-rule="evenodd" d="M225.861 187.1L128 17.6L30.1391 187.1H48.2679L48.3257 187H128V172H56.9859L128 49L207.732 187.1H225.861ZM102.4 128.45C102.4 123.25 103.475 118.625 105.625 114.575C107.825 110.475 110.925 107.3 114.925 105.05C118.925 102.75 123.525 101.6 128.725 101.6C135.325 101.6 140.875 103.375 145.375 106.925C149.875 110.425 152.775 115.2 154.075 121.25H138.25C137.3 119.25 135.975 117.725 134.275 116.675C132.625 115.625 130.7 115.1 128.5 115.1C125.1 115.1 122.375 116.325 120.325 118.775C118.325 121.175 117.325 124.4 117.325 128.45C117.325 132.55 118.325 135.825 120.325 138.275C122.375 140.675 125.1 141.875 128.5 141.875C130.7 141.875 132.625 141.35 134.275 140.3C135.975 139.25 137.3 137.725 138.25 135.725H154.075C152.775 141.775 149.875 146.575 145.375 150.125C140.875 153.625 135.325 155.375 128.725 155.375C123.525 155.375 118.925 154.25 114.925 152C110.925 149.7 107.825 146.525 105.625 142.475C103.475 138.375 102.4 133.7 102.4 128.45Z" fill="white"/>
</svg>
